<?xml version="1.0" encoding="utf-8"?>
<!-- Generator: Adobe Illustrator 23.0.1, SVG Export Plug-In . SVG Version: 6.00 Build 0)  -->
<svg version="1.1" id="Layer_1" xmlns="http://www.w3.org/2000/svg" xmlns:xlink="http://www.w3.org/1999/xlink" x="0px" y="0px"
	 width="416.7px" height="601px" viewBox="0 0 416.7 601" style="enable-background:new 0 0 416.7 601;" xml:space="preserve">
<style type="text/css">
	.st0{fill:#4A280C;}
	.st1{fill:#CBC3BE;}
</style>
<g>
	<path class="st0" d="M69.6,588.3v0.3c0,1.5,2.1,3.6,6.7,3.6c3.8,0,5-1.3,5-2.4c0-1.7-2-2.7-6.7-4.3c-6.3-2.1-14.5-5.1-14.5-13.2
		c0-7.5,6.4-12.2,15.4-12.2c9.2,0,16.1,4.9,16.1,12.7v0.6h-10v-0.4c0-1.9-2-4.2-6.1-4.2c-3.4,0-4.8,1.4-4.8,2.7c0,1.6,1.8,2.4,6.5,4
		c5.5,1.9,14.8,5.1,14.8,13.7c0,7.7-6.7,11.7-15.7,11.7c-9.5,0-16.7-4.4-16.7-12.1v-0.5H69.6z"/>
	<path class="st0" d="M105.6,561.3h34v10h-12v29h-10v-29h-12V561.3z"/>
	<path class="st0" d="M172.5,560.5c11.4,0,20.7,9.1,20.7,20.3c0,11.2-9.3,20.3-20.7,20.3c-11.3,0-20.7-9.1-20.7-20.3
		C151.8,569.6,161.3,560.5,172.5,560.5z M172.5,591.3c6,0,10.6-4.7,10.6-10.6s-4.6-10.6-10.6-10.6c-5.9,0-10.6,4.7-10.6,10.6
		S166.7,591.3,172.5,591.3z"/>
	<path class="st0" d="M227.8,561.3c10,0,14.7,6.5,14.7,14.2c0,5.5-2.5,10.6-7.7,13l8.5,11.8h-12.6l-7.1-10h-4.9v10h-10v-39H227.8z
		 M218.6,570.3v10h8.2c3.8,0,5.3-2.4,5.3-5c0-2.9-1.4-5-5.3-5H218.6z"/>
	<path class="st0" d="M258.6,600.3v-39h10.1l11.3,24.7l11.4-24.7h10.1v39h-10v-18.4l-8.3,16.4h-6.5l-8.1-16.4v18.4H258.6z"/>
	<path class="st0" d="M336.6,575.4l8.7-14.1h11.9L341.6,586v14.3h-10V586l-15.5-24.7h11.8L336.6,575.4z"/>
</g>
<g id="Sitting_pose">
	<g id="head_13_">
		<path class="st1" d="M137.8,485.6c-2.4,0-4.8,0.1-7.2,0.1l-25.6-0.5c-8.7-0.3-18-1-25.2-6c-7.6-5.3-11.6-15.4-9.6-24.5
			c1.4-6.5,5.1-11.9,9.5-16.9c-9.4-1-17.7-9-19.1-18.4c-1.4-9.4,5.2-19.6,14-23.3c-3.6-1.8-7.4-3.7-10.3-6.4c-5.4-5-8-13.1-6.4-20.3
			s7.2-13.5,14.3-15.8l1.1-0.9c-7.1-1.7-14.3-4.5-16.5-13.5c-2.6-10.8,2.6-21.8,17.9-23.9l1.7-0.5c-7.8-0.8-14.8-6.2-17.2-14.2
			c-3.2-10.6,5-21.8,15.6-25l1.8-0.4c-0.8-5.2-1.8-10.9-2.2-16.1c-0.4-4.5-0.1-9,0.7-13.5c0.4-2.3,1-4.5,2.3-6.4s2.7-3.2,5-3.6
			c1.8-0.3,3.7,0.2,5.2,1.1s2.9,2.1,4.2,3.5c5.5,6,9.9,14.4,12.3,22.2l0.3-0.1c-0.7-2.6-1.5-5.1-1.7-7.8c-0.1-1.6-0.3-3,0-4.6
			c0.3-1.6,2-4.1,4.2-4.9c2.2-0.8,5.5,0.7,6.2,1.4c1.5,1.6,1.8,2,3.2,4.8c0.9,1.8,1.8,4.4,2.3,6.4l0.1,0c-0.7-1.9-1.3-4.5-1.6-6.6
			c-0.4-3.1-0.4-3.7,0-5.8c0.2-1,2.2-4,4.4-4.5c2.2-0.5,5,0.6,6.1,1.8c1.1,1.2,1.7,2.4,2.5,3.8c1.3,2.4,2,4.9,2.8,7.5l0.3-0.1
			c-2.3-7.8-3.3-17.6-1.9-25.6c0.3-1.8,0.7-3.6,1.6-5.2c0.8-1.6,2.1-3,3.8-3.8c2.1-1,4-0.6,6.1,0.3c2.1,0.9,3.9,2.4,5.5,4.1
			c3.1,3.3,5.9,7.3,8,11.2c2.5,4.7,4.8,9.9,6.9,14.7l1.7-0.6c10.6-3.2,24.2,4,27.4,14.6c2.4,8-0.5,16.4-6.6,21.3l1.7-0.5
			c13.6-4,23.1,4.5,26.3,15.1s0.2,18.3-8.7,26.1l-0.1,0.1c7-2.4,15.2,0,20.4,5.3c5.2,5.3,7.5,13,6.9,20.4c-0.5,6.1-3.3,12.4-8.8,15
			c7.7-1.6,15.4,1.9,20.3,8c4.9,6.1,6.4,14.7,4.5,22.3c-1.9,7.6-7.1,14.3-13.7,18.6c2.9-2.1,7-6.3,10.9-8.3c3.9-2.1,8.4-3,12.6-2.1
			c4.8,1.1,8.3,4.5,10.8,8.7s3.6,9.2,3.8,14.2c0.4-7.2,5.2-14.6,11.8-17.3s15.7-0.7,20.1,5.1c3.3,4.4,4,10.2,4.1,15.6
			c0.7-7.1,5.9-13.9,12.7-16.2c6.8-2.3,14.2-0.4,19.1,4.8c4.9,5.2,6.5,13.3,3.8,20c1.1-1.8,2.6-3.5,4.4-4.6c7.6-5.2,19.1-2.9,25,4.2
			c5.9,7.1,6.5,17.8,2.5,26.2c-1,2.1-2.4,4.1-4.1,5.8c-3.3,3.1-6.7,5.1-11.3,5.8c-2.8,0.4-7-0.1-9.7-0.9s-5.5-2.5-7.4-4.8l-0.1-0.2
			c2.6,7.5,0.7,16.4-4.8,22.1c-5.6,5.7-14.2,7.5-21.6,4.4c-7.4-3.1-12.9-10.6-12.8-18.6c-1.6,6.9-6.7,13-13.2,15.8
			c-6.6,2.7-14.5,2-20.4-2c-5.9-4.1-9.7-10.6-9.1-17.7c-2.9,9.3-10.7,16.7-20.5,16.4c-3.1-0.1-8-1.5-10.6-3.1c-3.4-2.2-5.7-6-7-9.9
			s-1.6-8.1-1.9-12.2c-0.8,6.8-6.4,13.5-12.5,16.4s-12.5,4.1-19.3,4.2c-8.2,0.1-17.1-1.1-25.2-2.5"/>
	</g>
	<g id="head_14_">
		<g>
			<path class="st0" d="M73.2,356.8c-0.3,0-0.6,0-0.9-0.1c-4.9-1.2-16.5-3.9-19.5-16.5c-1.6-6.8-0.6-13.5,3-18.7
				c1.6-2.3,4.2-5,8.2-7.1c-4.1-3-7.3-7.4-8.8-12.6c-1.8-6.2-0.7-12.8,3.2-18.7c3.2-4.9,8.1-8.8,13.5-10.8
				c-0.7-4.2-1.3-8.7-1.7-12.9c-0.4-4.5-0.2-9.2,0.7-14.5c0.5-3.3,1.5-5.9,3-8c1.4-2,3.6-4.7,7.8-5.3c2.6-0.4,5.3,0.2,7.8,1.6
				c2.2,1.3,3.9,2.9,5.2,4.3c2.1,2.2,4,4.8,5.8,7.6c1.2-1.6,2.9-3.1,4.9-3.8c2.7-1,6.1-0.2,8.4,1c1.3-2.3,3.7-4.7,6.5-5.4
				c2.1-0.5,4.2-0.2,6.1,0.5c-0.1-3.5,0.1-6.8,0.7-9.9c0.3-1.8,0.8-4.1,2-6.4c1.3-2.6,3.3-4.5,5.6-5.6c3.8-1.8,7.2-0.7,9.4,0.2
				c2.4,1,4.6,2.7,6.9,5.1c3.4,3.7,6.4,7.9,8.6,12.1c2,3.7,3.9,7.8,5.6,11.7c5.7-1.2,12.1-0.2,17.8,2.9c6.4,3.4,11.1,8.8,12.9,14.9
				c1.7,5.8,1.2,11.8-1.2,17c9.3,0.4,18.7,6,22.5,18.9c3.5,11.9,0.5,21.2-9.9,30.3c-1.7,1.5-4.3,1.3-5.7-0.4
				c-1.5-1.7-1.3-4.3,0.4-5.7c8-7,10.1-13.1,7.5-21.9c-3.8-12.6-13.8-14.6-21.2-12.4l-1.7,0.5c-1.9,0.6-3.9-0.3-4.8-2
				c-0.9-1.7-0.5-3.8,1-5.1c5.1-4.1,7.1-10.7,5.3-17c-1.2-4-4.4-7.6-8.9-10c-4.4-2.4-9.3-3-13.3-1.9l-1.6,0.6c-2,0.7-4.2-0.3-5-2.2
				l-0.2-0.5c-2.1-4.7-4.3-9.6-6.6-14c-1.9-3.5-4.5-7.2-7.4-10.4c-1.4-1.6-2.8-2.6-4-3.1c-1.7-0.7-2.3-0.6-2.8-0.3
				c-0.7,0.3-1.4,1.1-1.9,2c-0.5,1-0.9,2.2-1.2,4c-1.2,6.9-0.5,16,1.8,23.8c0.6,2.1-0.5,4.2-2.5,5l-0.3,0.1c-1,0.4-2.2,0.3-3.2-0.2
				c-1-0.5-1.7-1.3-2.1-2.4c-0.2-0.5-0.3-1-0.5-1.5c-0.6-1.9-1.2-3.7-2.1-5.4l-0.2-0.3c-0.6-1.1-1-2-1.7-2.6
				c-0.4-0.4-1.7-0.8-2.2-0.7c-0.4,0.2-1.2,1.1-1.5,1.6c-0.3,1.4-0.3,1.7,0,4.3c0.1,1.2,0.5,2.8,0.9,4.2c0,0.1,0.1,0.3,0.1,0.4
				c0.1,0.4,0.2,0.8,0.4,1.1c0.4,1.1,0.3,2.2-0.2,3.2c-0.5,1-1.4,1.7-2.5,2.1c-1.1,0.3-2.3,0.2-3.2-0.4c-1-0.6-1.7-1.5-2-2.6
				c-0.1-0.4-0.2-0.7-0.3-1.1c0-0.1-0.1-0.3-0.1-0.4c-0.4-1.4-1-2.9-1.5-4c-1.1-2.3-1.3-2.5-2.3-3.6c-0.6-0.3-1.7-0.6-2.2-0.5
				c-0.5,0.2-1.3,1.2-1.5,1.8c-0.2,0.9-0.1,1.8,0,3.1l0,0.3c0.2,1.9,0.7,3.7,1.2,5.6c0.1,0.5,0.3,1,0.4,1.5c0.3,1.1,0.1,2.2-0.5,3.1
				s-1.5,1.6-2.6,1.9l-0.3,0.1c-2.1,0.5-4.2-0.7-4.8-2.8c-2.3-7.7-6.6-15.4-11.4-20.6c-1.2-1.3-2.2-2.2-3.2-2.7
				c-0.9-0.5-1.9-0.8-2.7-0.7c-0.6,0.1-1.1,0.3-2.2,1.8c-0.8,1.2-1.3,2.7-1.7,4.8c-0.8,4.6-1,8.7-0.6,12.4
				c0.4,4.9,1.3,10.2,2.1,15.3l0.1,0.6c0.3,2.1-1,4.1-3,4.6l-1.7,0.4c-4.3,1.3-8.2,4.2-10.7,8c-2.5,3.8-3.3,8.1-2.2,11.9
				c1.9,6.2,7.2,10.7,13.7,11.3c1.9,0.2,3.5,1.7,3.6,3.7c0.2,1.9-1,3.7-2.9,4.3l-1.7,0.5c-0.2,0.1-0.4,0.1-0.6,0.1
				c-5.8,0.8-10.2,3.1-12.7,6.7c-2.3,3.3-2.9,7.6-1.8,12.2c1.5,6.4,6.3,8.8,13.5,10.5c2.2,0.5,3.5,2.7,3,4.9
				C76.7,355.6,75.1,356.8,73.2,356.8z M110.3,249.7C110.3,249.7,110.3,249.7,110.3,249.7C110.3,249.7,110.3,249.7,110.3,249.7z
				 M120.8,246.6L120.8,246.6L120.8,246.6z"/>
		</g>
		<g>
			<path class="st0" d="M105,489.3c-0.1,0-0.1,0-0.2,0c-9.9-0.4-19.4-1.2-27.4-6.7c-9-6.2-13.6-18-11.3-28.7c1-4.7,3.1-9.1,6.4-13.7
				c-8.2-3.4-14.7-11.2-16-20.1c-1.3-8.5,2.9-17.8,9.9-23.6c-1.7-1.1-3.4-2.3-5-3.7c-6.5-6-9.5-15.5-7.6-24.2
				c1.9-8.7,8.6-16,17-18.8c2.1-0.7,4.4,0.5,5.1,2.6c0.7,2.1-0.5,4.4-2.6,5.1c-5.6,1.9-10.3,7-11.6,12.8c-1.3,5.8,0.8,12.4,5.2,16.5
				c2.6,2.4,6,4.1,9.4,5.8c1.4,0.7,2.3,2.2,2.3,3.8c0,1.6-1,3-2.5,3.6c-7.4,3.2-12.6,11.7-11.5,18.9c1.1,7.5,7.9,14.1,15.5,14.9
				c1.5,0.2,2.8,1.2,3.4,2.6s0.2,3-0.8,4.2c-4.8,5.3-7.5,10.1-8.6,15c-1.6,7.5,1.6,15.9,8,20.3c6.1,4.3,14.4,4.9,23,5.2
				c2.2,0.1,4,2,3.9,4.2C109,487.5,107.2,489.3,105,489.3z"/>
		</g>
		<g>
			<path class="st0" d="M188.8,490.8c-8.4,0-17.4-1.3-25.1-2.5c-2.2-0.4-3.7-2.5-3.4-4.7c0.4-2.2,2.4-3.7,4.7-3.4
				c7.6,1.2,16.5,2.5,24.5,2.4c6.6-0.1,12.4-1.3,17.6-3.8c5.2-2.5,9.6-8.2,10.2-13.2c0.3-2.2,2.3-3.8,4.5-3.6
				c2.2,0.3,3.8,2.3,3.6,4.5c-0.9,7.9-7,15.9-14.8,19.6c-6.3,3-13.2,4.5-21,4.6C189.3,490.8,189.1,490.8,188.8,490.8z"/>
		</g>
		<g>
			<path class="st0" d="M358.4,481.1c-3.1,0-6.4-0.6-8.6-1.2c-3.8-1.2-7.1-3.4-9.4-6.2c-1.4-1.8-1.1-4.3,0.6-5.7
				c1.8-1.4,4.3-1.1,5.7,0.6c1.2,1.5,3.2,2.8,5.4,3.5c2.4,0.7,5.9,1.1,8,0.8c3.3-0.5,6-1.9,9.1-4.7c1.2-1.1,2.3-2.6,3.2-4.6
				c3.5-7.2,2.7-16.2-1.9-21.8c-4.8-5.7-13.9-7.3-19.6-3.4c-1.2,0.8-2.4,2.1-3.2,3.4c-1.1,1.8-3.4,2.5-5.3,1.5
				c-1.9-0.9-2.8-3.2-2-5.2c2.1-5.2,0.9-11.6-3-15.7c-3.9-4.1-9.7-5.6-14.9-3.8c-5.2,1.8-9.5,7.2-10,12.7c-0.2,2.1-2,3.8-4.2,3.7
				c-2.2-0.1-3.9-1.8-3.9-4c-0.1-4.2-0.5-9.6-3.3-13.3c-3.1-4.1-10.1-5.8-15.3-3.7c-5.1,2.1-9,7.8-9.3,13.7
				c-0.1,2.2-1.9,3.8-4.1,3.8c0,0,0,0,0,0c-2.2,0-3.9-1.7-4-3.9c-0.2-4.9-1.3-9-3.3-12.3c-2.3-3.9-5.1-6.2-8.2-6.8
				c-3-0.7-6.5,0-9.9,1.7c-1.3,0.7-2.8,1.8-4.2,3c-1.9,1.9-4,3.7-6.3,5.2c-1.8,1.2-4.3,0.7-5.6-1.1c-1.3-1.8-0.8-4.3,0.9-5.6
				c0.9-0.6,2-1.6,3.1-2.6c0.8-0.6,1.5-1.3,2.4-2c3.2-3.4,5.6-7.5,6.6-11.7c1.7-6.6,0.2-13.8-3.7-18.8c-4.2-5.3-10.5-7.8-16.3-6.6
				c-2,0.4-4-0.8-4.7-2.7c-0.6-2,0.3-4.1,2.2-5c4.2-1.9,6.1-7.3,6.5-11.6c0.5-6.6-1.6-13-5.8-17.2c-4.3-4.3-10.9-6.1-16.2-4.3
				c-2.1,0.7-4.4-0.4-5.2-2.5c-0.7-2.1,0.4-4.4,2.5-5.2c8.2-2.8,18.1-0.3,24.6,6.3c5.8,5.8,8.8,14.7,8.1,23.5
				c-0.3,3.5-1.3,7.5-3.3,10.9c5.3,1.3,10.2,4.5,13.9,9.2c5.5,6.9,7.5,16.8,5.2,25.9c-0.3,1-0.6,2-0.9,3c2.6-0.4,5.2-0.4,7.7,0.2
				c5.4,1.2,10,4.8,13.5,10.6c0.5,0.8,0.9,1.6,1.3,2.5c2.5-3.2,5.7-5.8,9.3-7.3c8.6-3.5,19.5-0.7,24.9,6.4c1.1,1.5,2,3,2.6,4.6
				c2.6-3,5.9-5.3,9.7-6.6c8.2-2.8,17.4-0.5,23.4,5.9c3.4,3.6,5.5,8.2,6,13c8.9-3.9,20.7-1.2,27.3,6.7c6.7,8.1,7.9,20.4,3,30.6
				c-1.4,2.8-3,5.1-5,6.9c-4.3,4-8.5,6.1-13.5,6.8C360.3,481,359.4,481.1,358.4,481.1z"/>
		</g>
		<g>
			<path class="st0" d="M324.5,503c-3,0-6.1-0.6-9.1-1.8c-5.3-2.2-9.6-6.2-12.3-11c-2.8,3.6-6.5,6.5-10.6,8.2
				c-8,3.3-17.3,2.4-24.3-2.4c-3.7-2.6-6.6-5.8-8.5-9.5c-4.8,5.8-11.7,9.2-19,8.9c-3.5-0.1-9.2-1.6-12.6-3.8c-5-3.2-7.4-8.3-8.6-12
				c-1.4-4.5-1.8-9-2.1-13.1c-0.2-2.2,1.5-4.2,3.7-4.4c2.2-0.2,4.2,1.5,4.4,3.7c0.3,3.6,0.6,7.7,1.8,11.2c1.1,3.5,3,6.2,5.3,7.7
				c1.8,1.2,6,2.4,8.5,2.5c8.4,0.3,14.3-6.6,16.5-13.6c0.6-2,2.6-3.2,4.7-2.8c2,0.4,3.4,2.3,3.2,4.4c-0.5,5.2,2.3,10.5,7.3,14
				c4.7,3.2,11.2,3.9,16.5,1.6c5.3-2.2,9.5-7.2,10.8-13c0.5-2,2.4-3.3,4.4-3.1c2.1,0.2,3.6,2,3.6,4.1c0,6.2,4.2,12.3,10.3,14.8
				c5.8,2.4,12.7,1,17.2-3.6c4.4-4.4,6-11.8,3.9-17.9c-0.7-2.1,0.4-4.4,2.5-5.2c2.1-0.7,4.4,0.4,5.2,2.5c3.1,9.1,0.8,19.6-5.8,26.2
				C336.9,500.5,330.7,503,324.5,503z"/>
		</g>
		<g>
			<path class="st0" d="M130.6,489.8c-2.2,0-4-1.8-4.1-4c0-2.2,1.8-4.1,4-4.1l7.2-0.1c0,0,0,0,0,0c2.2,0,4,1.8,4.1,4
				c0,2.2-1.8,4.1-4,4.1L130.6,489.8C130.6,489.8,130.6,489.8,130.6,489.8z"/>
		</g>
	</g>
	<g id="neutral_face_12_">
		<circle class="st0" cx="102.5" cy="288.3" r="7.5"/>
		<g>
			<path class="st0" d="M120.3,292.8c-0.3,0-0.6,0-0.9,0c-2.2-0.1-4-2-3.9-4.2c0.1-2.2,2-4,4.2-3.9c0.5,0,0.8,0,1,0
				c0,0,0.1-0.1,0.2-0.2c0.5-0.5,0.5-0.9,0.5-1.2c0-0.4-0.2-0.8-0.3-1.3c-0.3-1.2-0.5-2-0.8-2.9c-0.2-0.9-0.4-1.7-0.8-2.9
				c-0.6-2.2,0.7-4.4,2.9-5c2.2-0.6,4.4,0.7,5,2.9c0.3,1.2,0.5,2,0.8,2.9c0.2,0.8,0.4,1.7,0.7,2.8c0.2,0.7,0.4,1.5,0.5,2.5
				c0.3,3-0.6,5.8-2.8,7.9C124.6,292.2,122.8,292.8,120.3,292.8z"/>
		</g>
		<circle class="st0" cx="148.7" cy="274.6" r="7.5"/>
		<g>
			<path class="st0" d="M131.1,289.7c-0.7,0-1.4-0.1-2.1-0.2c-2.9-0.6-5.3-2.4-6.6-5.1c-0.4-0.9-0.7-1.7-0.9-2.4
				c-0.4-1.2-0.7-2-0.9-2.8c-0.3-0.8-0.6-1.7-0.9-2.8c-0.7-2.1,0.5-4.4,2.6-5.1c2.1-0.7,4.4,0.5,5.1,2.6c0.4,1.1,0.6,1.9,0.9,2.7
				c0.3,0.9,0.6,1.7,0.9,2.9c0.2,0.5,0.3,1,0.5,1.3c0.2,0.3,0.4,0.6,1.1,0.8c0.1,0,0.2,0,0.3,0.1c0.1-0.1,0.4-0.2,0.8-0.5
				c1.8-1.3,4.4-0.9,5.7,1c1.3,1.8,0.9,4.4-1,5.7C134.6,289,133.1,289.7,131.1,289.7z"/>
		</g>
	</g>
	<g id="paw_2_">
		<path class="st1" d="M109.9,470.4c-1.4,6.7-3.8,11.6-3.2,17.5c0.2,1.8,0.7,3.5,1.4,5.1c1.9,3.9,6,7.1,10.3,6.7
			c4-0.3,7.4-3.6,8.8-7.4s1.4-8,1-12c-0.3-3.1-1.3-6.8-1.9-9.9"/>
		<g>
			<path class="st0" d="M117.9,503.8c-5.4,0-10.6-3.5-13.3-9.1c-1-2-1.6-4.2-1.8-6.5c-0.5-4.9,0.6-8.9,1.8-13.2
				c0.5-1.8,1-3.6,1.4-5.5c0.5-2.2,2.6-3.6,4.8-3.1c2.2,0.5,3.6,2.6,3.1,4.8c-0.5,2.2-1,4.2-1.5,6c-1.1,3.8-1.9,6.9-1.6,10.2
				c0.1,1.3,0.5,2.6,1.1,3.8c1.1,2.4,3.7,4.7,6.3,4.5c2.1-0.2,4.4-2.2,5.4-4.8c1.2-3.1,1.1-6.9,0.8-10.2c-0.2-1.8-0.7-4.1-1.2-6.2
				c-0.3-1.1-0.5-2.3-0.7-3.3c-0.4-2.2,1-4.3,3.2-4.8c2.2-0.4,4.3,1,4.8,3.2c0.2,1,0.4,2,0.7,3.1c0.5,2.4,1.1,4.9,1.3,7.3
				c0.4,4.2,0.5,9.2-1.3,13.9c-2.2,5.6-7,9.6-12.3,10C118.5,503.8,118.2,503.8,117.9,503.8z"/>
		</g>
	</g>
	<g id="paw_3_">
		<path class="st1" d="M143.7,470.4c-1.4,6.7-3.8,11.6-3.2,17.5c0.2,1.8,0.7,3.5,1.4,5.1c1.9,3.9,6,7.1,10.3,6.7
			c4-0.3,7.4-3.6,8.8-7.4s1.4-8,1-12c-0.3-3.1-1.3-6.8-1.9-9.9"/>
		<g>
			<path class="st0" d="M151.6,503.8c-5.4,0-10.6-3.5-13.3-9.1c-1-2-1.6-4.2-1.8-6.5c-0.5-4.8,0.6-8.9,1.8-13.2
				c0.5-1.8,1-3.6,1.4-5.5c0.5-2.2,2.6-3.6,4.8-3.1c2.2,0.5,3.6,2.6,3.1,4.8c-0.5,2.2-1,4.2-1.5,6c-1.1,3.8-1.9,6.9-1.6,10.2
				c0.1,1.3,0.5,2.6,1.1,3.8c1.1,2.4,3.7,4.7,6.3,4.5c2.1-0.2,4.4-2.2,5.4-4.8c1.2-3.1,1.1-6.9,0.8-10.2c-0.2-1.8-0.7-4.1-1.2-6.2
				c-0.3-1.1-0.5-2.3-0.7-3.3c-0.4-2.2,1-4.3,3.2-4.8c2.2-0.4,4.3,1,4.8,3.2c0.2,1,0.4,2,0.7,3.1c0.5,2.4,1.1,4.9,1.3,7.3
				c0.4,4.2,0.5,9.2-1.3,13.9c-2.2,5.6-7,9.6-12.3,10C152.3,503.8,151.9,503.8,151.6,503.8z"/>
		</g>
	</g>
</g>
</svg>
